<?xml version="1.0" encoding="UTF-8" standalone="no"?>
<svg
   xmlns:dc="http://purl.org/dc/elements/1.1/"
   xmlns:cc="http://creativecommons.org/ns#"
   xmlns:rdf="http://www.w3.org/1999/02/22-rdf-syntax-ns#"
   xmlns:svg="http://www.w3.org/2000/svg"
   xmlns="http://www.w3.org/2000/svg"
   xmlns:xlink="http://www.w3.org/1999/xlink"
   xmlns:sodipodi="http://sodipodi.sourceforge.net/DTD/sodipodi-0.dtd"
   xmlns:inkscape="http://www.inkscape.org/namespaces/inkscape"
   id="svg2985"
   version="1.1"
   inkscape:version="0.91 r13725"
   width="60"
   height="60"
   inkscape:export-filename="/home/hans/development/finfoil-web/img/icons/icon16x16.png"
   inkscape:export-xdpi="24"
   inkscape:export-ydpi="24"
   sodipodi:docname="finFoil.svg">
  <sodipodi:namedview
     pagecolor="#ffffff"
     bordercolor="#666666"
     borderopacity="1"
     objecttolerance="10"
     gridtolerance="10"
     guidetolerance="10"
     inkscape:pageopacity="0"
     inkscape:pageshadow="2"
     inkscape:window-width="1366"
     inkscape:window-height="732"
     id="namedview5358"
     showgrid="false"
     inkscape:zoom="9.1"
     inkscape:cx="30"
     inkscape:cy="30"
     inkscape:window-x="0"
     inkscape:window-y="17"
     inkscape:window-maximized="1"
     inkscape:current-layer="layer1" />
  <metadata
     id="metadata2991">
    <rdf:RDF>
      <cc:Work
         rdf:about="">
        <dc:format>image/svg+xml</dc:format>
        <dc:type
           rdf:resource="http://purl.org/dc/dcmitype/StillImage" />
        <dc:title />
      </cc:Work>
    </rdf:RDF>
  </metadata>
  <defs
     id="defs2989">
    <linearGradient
       id="linearGradient4102">
      <stop
         style="stop-color:#000000;stop-opacity:1;"
         offset="0"
         id="stop4104" />
      <stop
         style="stop-color:#000000;stop-opacity:0;"
         offset="1"
         id="stop4106" />
    </linearGradient>
    <linearGradient
       inkscape:collect="always"
       xlink:href="#linearGradient4102"
       id="linearGradient4108"
       x1="94.1"
       y1="917.5"
       x2="291.2"
       y2="59"
       gradientUnits="userSpaceOnUse"
       gradientTransform="matrix(1.017494,0,0,1,-2.1812891,-2.7048805)" />
  </defs>
  <g
     inkscape:groupmode="layer"
     id="layer5"
     inkscape:label="back2"
     transform="translate(0,-283)"
     style="display:inline"
     sodipodi:insensitive="true">
    <rect
       style="fill:#e6e6e6;fill-opacity:0.19607843;stroke:none"
       id="rect3146"
       width="54"
       height="54"
       x="3"
       y="286"
       rx="8"
       ry="8"
       inkscape:export-filename="/home/hans/development/finfoil-web/img/icons/icon128x128.png"
       inkscape:export-xdpi="36.810001"
       inkscape:export-ydpi="36.810001" />
  </g>
  <g
     inkscape:groupmode="layer"
     id="layer1"
     inkscape:label="logo">
    <g
       transform="matrix(0.14761569,0,0,0.14761569,-20.732295,7.5840513)"
       id="g5360">
      <g
         inkscape:export-ydpi="245.05737"
         inkscape:export-xdpi="245.05737"
         transform="translate(-20,-93.392743)"
         id="g3521">
        <path
           style="fill:#000000;stroke:#000000;stroke-width:0.42839244"
           d="m 210.81405,313.98082 c 0.79477,-3.22126 6.36243,-14.11247 13.85158,-27.09582 21.13803,-36.64538 46.09061,-69.3857 72.97126,-95.74571 9.02325,-8.84848 13.72659,-12.93039 22.70913,-19.70869 24.15747,-18.22942 51.59786,-30.7995 68.10316,-31.19717 2.74895,-0.0662 3.10202,0.024 3.88716,0.99313 1.17698,1.45281 0.79615,3.99564 -1.18138,7.88824 -1.92088,3.78106 -3.83343,6.50997 -12.1337,17.31291 -14.49936,18.87115 -19.86933,27.67163 -28.93302,47.41638 -10.84152,23.61767 -16.9464,43.7887 -20.03176,66.18663 -0.61665,4.47657 -0.77076,27.28545 -0.21781,32.23653 l 0.32296,2.89165 -59.81912,0 -59.81912,0 0.29066,-1.17808 z"
           id="path3517"
           inkscape:connector-curvature="0" />
        <path
           style="fill:#000000;stroke:#000000;stroke-width:0.42839244"
           d="m 195.45121,312.93235 c 3.35427,-6.61935 17.55962,-30.58744 24.70497,-41.68367 35.39056,-54.95909 79.51074,-104.27541 121.48306,-135.79039 35.00588,-26.28424 72.07431,-42.178474 106.89688,-45.835363 8.03627,-0.843928 21.9817,-0.846428 29.18547,-0.0052 28.87966,3.372328 47.68602,13.511473 52.78077,28.455913 0.52676,1.54512 0.95848,3.48403 0.95939,4.30869 0.004,3.48417 -2.94343,7.37544 -8.73716,11.53566 -4.58052,3.28907 -8.89011,5.8442 -28.72671,17.03188 -26.5393,14.96794 -34.17245,19.93276 -43.89036,28.54751 -9.26077,8.20952 -17.16254,19.19224 -24.86888,34.56542 -7.36138,14.68502 -11.71834,28.21236 -13.52052,41.97797 -0.95711,7.31074 -0.65934,20.85493 0.61218,27.84551 1.60101,8.80207 4.5478,18.10965 8.3461,26.36163 l 1.96472,4.26843 -2.18243,0.32571 c -1.20034,0.17915 -10.68279,0.27553 -21.07211,0.2142 l -18.88969,-0.11151 -1.62985,-6.21169 c -0.89642,-3.41643 -2.14139,-9.00696 -2.7666,-12.42339 -1.04477,-5.70911 -1.13913,-7.16485 -1.1662,-17.99248 -0.0337,-13.47139 0.42023,-17.49025 3.26042,-28.86648 3.06947,-12.29458 7.63035,-24.06164 14.54822,-37.53435 7.64231,-14.88356 13.59831,-23.77139 21.32749,-31.82589 6.50787,-6.78177 11.98867,-11.37421 28.73461,-24.07714 14.029,-10.64194 19.7753,-15.37667 24.07466,-19.83657 4.75342,-4.93092 6.10077,-7.43246 6.08857,-11.30425 -0.008,-2.48502 -0.24337,-3.33768 -1.77711,-6.43289 -3.41425,-6.89024 -10.32005,-13.5266 -18.17654,-17.46736 -6.00486,-3.011985 -9.06134,-3.581825 -17.83975,-3.325973 -8.07831,0.235447 -12.09518,0.868543 -21.23632,3.347043 -20.514,5.5621 -42.66905,16.78629 -67.91582,34.40751 -18.02797,12.5828 -31.40917,23.6371 -46.46775,38.38732 -34.97224,34.25611 -70.41355,81.23002 -95.67335,126.80544 -2.93823,5.30136 -6.04671,10.74561 -6.90774,12.09834 -2.00689,3.15298 -3.08477,3.3232 -1.52262,0.24045 z"
           id="path3519"
           inkscape:connector-curvature="0" />
      </g>
      <flowRoot
         transform="translate(0,-13.392743)"
         inkscape:export-ydpi="245.05737"
         inkscape:export-xdpi="245.05737"
         style="font-style:normal;font-variant:normal;font-weight:normal;font-stretch:normal;font-size:40px;line-height:125%;font-family:'Lane - Cane';-inkscape-font-specification:'Lane - Cane';letter-spacing:0px;word-spacing:0px;fill:#000000;fill-opacity:1;stroke:none;stroke-width:1px;stroke-linecap:butt;stroke-linejoin:miter;stroke-opacity:1"
         id="flowRoot3525"
         xml:space="preserve"><flowRegion
           id="flowRegion3527"><rect
             style="font-style:normal;font-variant:normal;font-weight:normal;font-stretch:normal;font-family:'Lane - Cane';-inkscape-font-specification:'Lane - Cane'"
             y="242.85281"
             x="169.6115"
             height="53.967293"
             width="267.90906"
             id="rect3529" /></flowRegion><flowPara
           id="flowPara3531" /></flowRoot>      <g
         id="flowRoot3533"
         style="font-style:normal;font-weight:normal;font-size:40px;line-height:125%;font-family:sans-serif;letter-spacing:0px;word-spacing:0px;fill:#000000;fill-opacity:1;stroke:none;stroke-width:1px;stroke-linecap:butt;stroke-linejoin:miter;stroke-opacity:1"
         transform="translate(69.522202,-17.109533)">
        <path
           inkscape:connector-curvature="0"
           id="path4261"
           style="font-style:normal;font-variant:normal;font-weight:normal;font-stretch:normal;font-size:90px;font-family:'Lane - Narrow';-inkscape-font-specification:'Lane - Narrow'"
           d="m 129.60125,268.44103 0,53.28 2.79,0 0,-44.1 9.18,0 0,-2.61 -9.18,0 0,-6.66 q 0,-4.86 0.81,-6.66 1.35,-2.7 5.58,-2.7 l 7.83,0 0,-2.43 -8.28,0.09 q -5.67,0 -7.38,3.24 -1.35,2.43 -1.35,8.55 z" />
        <path
           inkscape:connector-curvature="0"
           id="path4263"
           style="font-style:normal;font-variant:normal;font-weight:normal;font-stretch:normal;font-size:90px;font-family:'Lane - Narrow';-inkscape-font-specification:'Lane - Narrow'"
           d="m 150.92141,321.72103 2.79,0 0,-46.71 -2.79,0 0,46.71 z m -0.54,-61.2 q 0,4.32 1.89,4.32 1.98,0 1.98,-4.32 0,-4.23 -1.98,-4.23 -1.89,0 -1.89,4.23 z" />
        <path
           inkscape:connector-curvature="0"
           id="path4265"
           style="font-style:normal;font-variant:normal;font-weight:normal;font-stretch:normal;font-size:90px;font-family:'Lane - Narrow';-inkscape-font-specification:'Lane - Narrow'"
           d="m 166.47172,321.72103 2.88,0 0,-25.02 q 0,-2.7 0.09,-4.68 0.18,-2.07 0.36,-3.42 2.16,-11.97 15.39,-11.97 7.2,0 10.35,4.05 2.7,3.51 2.7,10.98 l 0,30.06 2.88,0 0,-30.96 q 0,-16.74 -16.02,-16.74 -11.34,0 -15.75,8.64 l 0,-7.65 -2.88,0 0,46.71 z" />
        <path
           inkscape:connector-curvature="0"
           id="path4267"
           style="font-style:normal;font-variant:normal;font-weight:normal;font-stretch:normal;font-size:90px;font-family:'Lane - Narrow';-inkscape-font-specification:'Lane - Narrow'"
           d="m 214.39953,321.72103 3.06,0 0,-32.31 27.63,0 0,-2.79 -27.63,0 0,-26.73 34.74,0 0,-2.88 -37.8,0 0,64.71 z" />
        <path
           inkscape:connector-curvature="0"
           id="path4269"
           style="font-style:normal;font-variant:normal;font-weight:normal;font-stretch:normal;font-size:90px;font-family:'Lane - Narrow';-inkscape-font-specification:'Lane - Narrow'"
           d="m 256.2432,298.50103 q 0,10.62 4.86,17.19 5.4,7.2 15.66,7.2 10.17,0 15.75,-7.2 4.86,-6.57 4.86,-17.19 0,-10.62 -4.86,-17.1 -5.49,-7.38 -15.75,-7.38 -10.26,0 -15.66,7.38 -4.86,6.48 -4.86,17.1 z m 2.88,0 q 0,-9.36 4.05,-15.21 4.59,-6.75 13.59,-6.75 8.91,0 13.68,6.75 4.05,5.85 4.05,15.21 0,9.45 -4.05,15.21 -4.77,6.75 -13.68,6.75 -8.91,0 -13.59,-6.75 -4.05,-5.76 -4.05,-15.21 z" />
        <path
           inkscape:connector-curvature="0"
           id="path4271"
           style="font-style:normal;font-variant:normal;font-weight:normal;font-stretch:normal;font-size:90px;font-family:'Lane - Narrow';-inkscape-font-specification:'Lane - Narrow'"
           d="m 308.06984,321.72103 2.79,0 0,-46.71 -2.79,0 0,46.71 z m -0.54,-61.2 q 0,4.32 1.89,4.32 1.98,0 1.98,-4.32 0,-4.23 -1.98,-4.23 -1.89,0 -1.89,4.23 z" />
        <path
           inkscape:connector-curvature="0"
           id="path4273"
           style="font-style:normal;font-variant:normal;font-weight:normal;font-stretch:normal;font-size:90px;font-family:'Lane - Narrow';-inkscape-font-specification:'Lane - Narrow'"
           d="m 323.89016,321.72103 2.79,0 0,-64.62 -2.79,0 0,64.62 z" />
        <path
           inkscape:connector-curvature="0"
           id="path4275"
           style="font-style:normal;font-variant:normal;font-weight:normal;font-stretch:normal;font-size:90px;font-family:'Lane - Narrow';-inkscape-font-specification:'Lane - Narrow'"
           d="m 342.95047,318.03103 0,0.81 q 0,0.63 0.09,0.9 0.18,0.99 0.36,1.35 0,0.18 0.09,0.27 0.09,0.36 0.54,0.63 0.18,0.18 0.36,0.18 0.18,0.09 0.54,0.09 0.36,0 0.45,-0.09 0.36,-0.09 0.72,-0.45 0.18,-0.18 0.18,-0.18 0.09,-0.18 0.09,-0.27 0.09,-0.18 0.18,-0.36 0.18,-0.54 0.18,-0.9 0.09,-0.18 0.09,-0.63 0,-0.18 0,-0.27 0.09,-0.09 0.09,-0.27 l 0,-0.81 q 0,-0.54 -0.09,-0.99 0,-0.54 -0.09,-0.99 0,-0.27 -0.18,-0.81 l -0.27,-0.54 q -0.09,-0.18 -0.36,-0.45 -0.18,-0.18 -0.45,-0.18 -0.18,-0.09 -0.36,-0.18 l -0.18,0 q -0.36,0 -0.54,0.09 -0.45,0.18 -0.63,0.45 -0.36,0.36 -0.45,0.81 -0.09,0.18 -0.09,0.27 0,0 -0.09,0.18 0,0.27 -0.09,0.36 l 0,0.36 q -0.09,0.45 -0.09,1.62 z" />
        <path
           inkscape:connector-curvature="0"
           id="path4277"
           style="font-style:normal;font-variant:normal;font-weight:normal;font-stretch:normal;font-size:90px;font-family:'Lane - Narrow';-inkscape-font-specification:'Lane - Narrow'"
           d="m 363.08938,321.72103 2.78999,0 0,-46.71 -2.78999,0 0,46.71 z m -0.54001,-61.2 q 0,4.32 1.89,4.32 1.98,0 1.98,-4.32 0,-4.23 -1.98,-4.23 -1.89,0 -1.89,4.23 z" />
        <path
           inkscape:connector-curvature="0"
           id="path4279"
           style="font-style:normal;font-variant:normal;font-weight:normal;font-stretch:normal;font-size:90px;font-family:'Lane - Narrow';-inkscape-font-specification:'Lane - Narrow'"
           d="m 376.38969,298.50103 q 0,10.62 4.86,17.19 5.4,7.2 15.66,7.2 10.17,0 15.75,-7.2 4.86,-6.57 4.86,-17.19 0,-10.62 -4.86,-17.1 -5.49,-7.38 -15.75,-7.38 -10.26,0 -15.66,7.38 -4.86,6.48 -4.86,17.1 z m 2.88,0 q 0,-9.36 4.05,-15.21 4.59,-6.75 13.59,-6.75 8.91,0 13.68,6.75 4.05,5.85 4.05,15.21 0,9.45 -4.05,15.21 -4.77,6.75 -13.68,6.75 -8.91,0 -13.59,-6.75 -4.05,-5.76 -4.05,-15.21 z" />
      </g>
    </g>
  </g>
</svg>
