<?xml version="1.0" encoding="UTF-8" standalone="no"?>
<svg
   xmlns:dc="http://purl.org/dc/elements/1.1/"
   xmlns:cc="http://creativecommons.org/ns#"
   xmlns:rdf="http://www.w3.org/1999/02/22-rdf-syntax-ns#"
   xmlns:svg="http://www.w3.org/2000/svg"
   xmlns="http://www.w3.org/2000/svg"
   version="1.1"
   id="svg2"
   viewBox="0 0 108.566 108.566"
   height="30.63974mm"
   width="30.63974mm">
  <defs
     id="defs4" />
  <metadata
     id="metadata7">
    <rdf:RDF>
      <cc:Work
         rdf:about="">
        <dc:format>image/svg+xml</dc:format>
        <dc:type
           rdf:resource="http://purl.org/dc/dcmitype/StillImage" />
        <dc:title></dc:title>
      </cc:Work>
    </rdf:RDF>
  </metadata>
  <g
     transform="translate(-207.70959,-94.864594)"
     id="layer1">
    <g
       style="opacity:0.75"
       transform="matrix(0.32197608,0,0,0.32197608,145.08866,84.084889)"
       id="g3521">
      <path
         style="fill:#000000;stroke:#000000;stroke-width:0.42839244"
         d="m 210.81405,313.98082 c 0.79477,-3.22126 6.36243,-14.11247 13.85158,-27.09582 21.13803,-36.64538 46.09061,-69.3857 72.97126,-95.74571 9.02325,-8.84848 13.72659,-12.93039 22.70913,-19.70869 24.15747,-18.22942 51.59786,-30.7995 68.10316,-31.19717 2.74895,-0.0662 3.10202,0.024 3.88716,0.99313 1.17698,1.45281 0.79615,3.99564 -1.18138,7.88824 -1.92088,3.78106 -3.83343,6.50997 -12.1337,17.31291 -14.49936,18.87115 -19.86933,27.67163 -28.93302,47.41638 -10.84152,23.61767 -16.9464,43.7887 -20.03176,66.18663 -0.61665,4.47657 -0.77076,27.28545 -0.21781,32.23653 l 0.32296,2.89165 h -59.81912 -59.81912 z"
         id="path3517" />
      <path
         style="fill:#000000;stroke:#000000;stroke-width:0.42839244"
         d="m 195.45121,312.93235 c 3.35427,-6.61935 17.55962,-30.58744 24.70497,-41.68367 35.39056,-54.95909 79.51074,-104.27541 121.48306,-135.79039 35.00588,-26.28424 72.07431,-42.178474 106.89688,-45.835363 8.03627,-0.843928 21.9817,-0.846428 29.18547,-0.0052 28.87966,3.372328 47.68602,13.511473 52.78077,28.455913 0.52676,1.54512 0.95848,3.48403 0.95939,4.30869 0.004,3.48417 -2.94343,7.37544 -8.73716,11.53566 -4.58052,3.28907 -8.89011,5.8442 -28.72671,17.03188 -26.5393,14.96794 -34.17245,19.93276 -43.89036,28.54751 -9.26077,8.20952 -17.16254,19.19224 -24.86888,34.56542 -7.36138,14.68502 -11.71834,28.21236 -13.52052,41.97797 -0.95711,7.31074 -0.65934,20.85493 0.61218,27.84551 1.60101,8.80207 4.5478,18.10965 8.3461,26.36163 l 1.96472,4.26843 -2.18243,0.32571 c -1.20034,0.17915 -10.68279,0.27553 -21.07211,0.2142 l -18.88969,-0.11151 -1.62985,-6.21169 c -0.89642,-3.41643 -2.14139,-9.00696 -2.7666,-12.42339 -1.04477,-5.70911 -1.13913,-7.16485 -1.1662,-17.99248 -0.0337,-13.47139 0.42023,-17.49025 3.26042,-28.86648 3.06947,-12.29458 7.63035,-24.06164 14.54822,-37.53435 7.64231,-14.88356 13.59831,-23.77139 21.32749,-31.82589 6.50787,-6.78177 11.98867,-11.37421 28.73461,-24.07714 14.029,-10.64194 19.7753,-15.37667 24.07466,-19.83657 4.75342,-4.93092 6.10077,-7.43246 6.08857,-11.30425 -0.008,-2.48502 -0.24337,-3.33768 -1.77711,-6.43289 -3.41425,-6.89024 -10.32005,-13.5266 -18.17654,-17.46736 -6.00486,-3.011985 -9.06134,-3.581825 -17.83975,-3.325973 -8.07831,0.235447 -12.09518,0.868543 -21.23632,3.347043 -20.514,5.5621 -42.66905,16.78629 -67.91582,34.40751 -18.02797,12.5828 -31.40917,23.6371 -46.46775,38.38732 -34.97224,34.25611 -70.41355,81.23002 -95.67335,126.80544 -2.93823,5.30136 -6.04671,10.74561 -6.90774,12.09834 -2.00689,3.15298 -3.08477,3.3232 -1.52262,0.24045 z"
         id="path3519" />
    </g>
    <flowRoot
       style="font-style:normal;font-variant:normal;font-weight:normal;font-stretch:normal;line-height:0.01%;font-family:'Lane - Cane';-inkscape-font-specification:'Lane - Cane';letter-spacing:0px;word-spacing:0px;fill:#000000;fill-opacity:1;stroke:none;stroke-width:1px;stroke-linecap:butt;stroke-linejoin:miter;stroke-opacity:1"
       id="flowRoot3525"
       xml:space="preserve"><flowRegion
         id="flowRegion3527"><rect
           style="font-style:normal;font-variant:normal;font-weight:normal;font-stretch:normal;font-family:'Lane - Cane';-inkscape-font-specification:'Lane - Cane'"
           y="242.85281"
           x="169.6115"
           height="53.967293"
           width="267.90906"
           id="rect3529" /></flowRegion><flowPara
         style="font-size:40px;line-height:1.25"
         id="flowPara3531"> </flowPara></flowRoot>  </g>
</svg>
